<svg width="24" height="24" viewBox="0 0 24 24" fill="none" xmlns="http://www.w3.org/2000/svg">
    <g clip-path="url(#clip0)">
    <path d="M4.55 5.99934V7.60408C4.55 14.0085 9.7435 19.2003 16.15 19.2003H17.75C18.4127 19.2003 18.95 18.6632 18.95 18.0007V15.9493C18.95 15.4329 18.6195 14.9745 18.1295 14.8112L15.5829 13.9627C15.0695 13.7916 14.5051 13.9852 14.2049 14.4353L13.6218 15.3097C13.3216 15.7599 12.7572 15.9534 12.2438 15.7824L11.0235 15.3757C9.77209 14.9587 8.81195 13.9441 8.46486 12.6719L7.96322 10.8331C7.79564 10.2189 8.13726 9.58077 8.74146 9.37944L9.22351 9.21881C9.72782 9.05076 10.0349 8.54092 9.94749 8.01674L9.57827 5.80213C9.48183 5.22369 8.9812 4.79974 8.3946 4.79974H5.75C5.08726 4.79974 4.55 5.33682 4.55 5.99934ZM3.75 5.99934C3.75 4.89514 4.64543 4 5.75 4H8.3946C9.37227 4 10.2067 4.70659 10.3674 5.67065L10.7366 7.88526C10.8887 8.79762 10.3543 9.68501 9.47649 9.97751L8.99444 10.1381C8.79305 10.2052 8.67917 10.418 8.73503 10.6227L9.23668 12.4615C9.51338 13.4757 10.2788 14.2846 11.2765 14.617L12.4968 15.0237C12.6679 15.0807 12.8561 15.0162 12.9561 14.8661L13.5393 13.9917C14.0396 13.2415 14.9802 12.9188 15.8359 13.204L18.3825 14.0525C19.1991 14.3247 19.75 15.0887 19.75 15.9493V18.0007C19.75 19.1049 18.8546 20 17.75 20H16.15C9.30167 20 3.75 14.4502 3.75 7.60408V5.99934Z" fill="#747075" stroke="#747075" stroke-width="0.35"/>
    </g>
    <defs>
    <clipPath id="clip0">
    <rect width="24" height="24" fill="white"/>
    </clipPath>
    </defs>
    </svg>
