<svg width="74" height="35" viewBox="0 0 74 35" fill="none" xmlns="http://www.w3.org/2000/svg">
	<path d="M54.0863 8.36459C54.9376 9.47492 55.8258 10.6346 56.7264 11.8066C56.8375 11.9547 56.9362 12.1644 57.0842 12.2137C57.3063 12.2878 57.6147 12.3124 57.8121 12.2014C57.9231 12.1397 57.9601 11.7696 57.8985 11.5722C57.6147 10.6716 57.1582 9.82036 56.9979 8.90742C56.6031 6.58805 57.3556 4.58945 58.9224 2.86227C60.7977 0.814317 63.1047 -0.172647 65.8929 0.024746C69.1498 0.25915 72.2341 2.52917 73.1594 5.55174C74.3437 9.48726 72.0737 13.2994 68.1259 13.8422C65.9175 14.1507 62.932 12.8799 61.945 10.758C60.958 8.62367 61.7599 5.72446 63.7339 4.7375C65.4487 3.88624 67.5954 4.47842 68.4343 6.10691C68.607 6.44001 68.6564 7.0692 68.459 7.27893C68.1875 7.56268 67.6324 7.58735 67.1882 7.67371C67.1389 7.68605 66.9168 7.3036 66.9538 7.14322C67.1266 6.403 67.0032 6.09457 66.3 5.78614C65.0169 5.21864 63.6969 5.69979 63.0923 6.95816C61.8957 9.46258 63.5118 12.2754 66.3617 12.5468C68.8167 12.7812 71.3828 11.6709 72.049 8.83339C72.4562 7.08153 72.0614 5.46538 70.9634 4.08363C69.3719 2.07269 67.2623 1.04872 64.6838 1.19677C61.6119 1.36948 59.6627 3.22004 58.6017 5.84783C57.6517 8.19187 58.2192 10.4002 59.4653 12.4235C60.2302 13.6695 61.2418 14.7675 62.1547 15.9149C64.2644 18.555 66.1149 21.3185 66.485 24.7975C66.9785 29.3992 64.6715 32.6932 60.3412 33.8529C57.5654 34.5931 54.9869 34.001 52.5935 32.4588C51.3228 31.6323 50.1508 30.6946 49.4476 29.3376C48.1399 26.8208 48.1152 24.3164 49.608 21.849C50.1508 20.9484 50.7306 20.0848 51.6312 19.4926C53.0747 18.5673 54.6785 18.481 56.3193 18.6167C58.6017 18.8017 60.6743 20.4302 61.3528 22.5769C62.1301 25.0073 60.7113 27.7091 58.3303 28.3629C57.1706 28.6714 55.9862 28.2766 55.283 27.2896C55.1596 27.1169 55.0609 26.7591 55.1596 26.6604C55.2953 26.5 55.6038 26.426 55.8382 26.4013C55.9862 26.389 56.1836 26.5247 56.307 26.6357C57.2446 27.4747 57.8985 27.487 58.8978 26.6851C61.1924 24.8345 60.773 21.7873 58.1822 20.3685C55.7025 18.9991 52.2481 19.7764 50.6936 22.2561C49.5093 24.1437 49.4723 26.1546 50.3729 28.1409C52.0013 31.7433 56.2206 33.7419 60.0204 32.6562C63.2404 31.7309 65.313 28.9674 65.2883 25.5501C65.276 22.4165 63.9189 19.9244 62.0067 17.5927C60.8964 16.2356 59.9217 14.7552 58.8731 13.3364C58.7744 13.213 58.6757 13.0897 58.577 12.9663C57.3063 13.5832 56.7881 13.4474 55.9245 12.3248C55.283 11.4982 54.6415 10.6716 53.9999 9.8327C53.5188 9.20351 52.9883 8.66068 52.1371 8.51263C52.0013 8.48796 51.8533 8.14252 51.8286 7.92045C51.8163 7.82176 52.1 7.62436 52.2604 7.59969C52.7046 7.538 53.161 7.56268 53.6175 7.52567C54.8882 7.4023 55.7025 6.46468 55.7025 5.13228C55.7148 3.70118 54.8759 2.65254 53.5805 2.55384C52.8279 2.50449 52.063 2.55384 51.2981 2.52917C50.7923 2.51683 50.8787 2.86227 50.8663 3.15835C50.8663 6.18093 50.8663 9.20351 50.8663 12.2261C50.8663 12.4975 50.8663 12.7566 50.8663 13.065C50.5579 13.065 50.2742 13.065 49.9041 13.065C49.9041 9.58595 49.9041 6.08223 49.9041 2.35645C49.4476 2.59085 49.0158 2.67721 48.9171 2.89928C48.6827 3.45444 48.3126 3.39276 47.8808 3.33107C47.7944 2.52917 48.2632 1.82595 49.0898 1.69025C49.756 1.57921 50.4345 1.60389 51.1131 1.59155C52.0013 1.57921 52.8896 1.55454 53.7655 1.6409C55.357 1.80128 56.3193 2.70188 56.5907 4.26869C56.8128 5.5394 56.6771 6.77311 55.5791 7.62436C55.1596 7.99447 54.5551 8.14252 54.0863 8.36459Z" fill="black"/>
	<path d="M24.2308 7.4516C24.2431 10.4865 22.5283 12.8429 19.8635 13.4597C15.7306 14.4097 12.0912 11.165 12.4859 6.9211C12.671 4.88549 13.4606 3.21999 15.2001 2.13433C17.0877 0.962311 19.1109 0.900627 21.0725 1.89993C23.0465 2.91156 24.0951 4.61408 24.2308 6.84708C24.2431 7.04448 24.2308 7.2542 24.2308 7.4516ZM23.3179 7.53796C23.3425 5.37897 22.553 3.76282 20.7518 2.76352C17.6798 1.06101 13.9541 2.96091 13.4729 6.43996C12.9671 10.0794 15.1507 12.7565 18.6051 12.7072C21.1342 12.6578 23.4536 10.4495 23.3179 7.53796Z" fill="black"/>
	<path d="M46.4375 7.48867C46.4498 10.4866 44.7349 12.8183 42.0948 13.4475C37.9742 14.4221 34.2978 11.1651 34.6802 6.9335C34.8653 4.94724 35.6055 3.30641 37.2834 2.20841C39.1833 0.96237 41.2559 0.876012 43.2545 1.87531C45.2408 2.86228 46.2894 4.57712 46.4375 6.81013C46.4498 7.04453 46.4375 7.2666 46.4375 7.48867ZM45.5245 7.42698C45.5245 5.28034 44.5992 3.6025 42.9337 2.72657C39.6891 1.01172 36.0743 3.04733 35.6302 6.84714C35.1984 10.5483 38.2457 13.3734 41.7864 12.5715C44.0317 12.0657 45.5245 10.0178 45.5245 7.42698Z" fill="black"/>
	<path d="M9.99368 10.6346C10.1417 10.7457 10.3391 10.8814 10.5982 11.0664C9.84564 12.2754 8.78465 13.028 7.43991 13.3488C4.02255 14.1877 0.888943 12.2631 0.161057 8.93211C-0.616176 5.3667 1.49346 1.92467 4.89848 1.29548C6.24322 1.04874 7.56328 1.17211 8.78465 1.86298C9.48786 2.25777 9.85797 2.86228 9.85797 3.67653C9.85797 4.26871 9.68526 4.78686 9.14243 5.08295C8.61193 5.3667 8.08144 5.34203 7.53861 4.98425C7.77301 4.66349 7.85937 4.25637 8.43921 4.35506C8.84634 4.41675 9.17944 3.86158 8.94503 3.4668C8.69829 3.05968 8.30351 2.64022 7.87171 2.4675C4.9725 1.29548 1.67851 3.12136 1.06166 6.2303C0.642202 8.31526 1.11101 10.1535 2.77651 11.5722C4.60239 13.1144 7.47693 13.0033 9.21645 11.3625C9.43852 11.1158 9.69759 10.906 9.99368 10.6346Z" fill="black"/>
	<path d="M27.2901 12.1891C29.1654 12.1891 30.9542 12.1891 32.7925 12.1891C32.7925 12.4975 32.7925 12.7813 32.7925 13.0897C30.6335 13.0897 28.4992 13.0897 26.3155 13.0897C26.3032 12.8799 26.2785 12.7072 26.2785 12.5222C26.2785 9.09248 26.2785 5.65044 26.2785 2.22074C26.2785 1.86297 26.2538 1.59155 26.772 1.59155C27.2408 1.59155 27.3025 1.78895 27.3025 2.18373C27.2901 4.3057 27.2901 6.41534 27.2901 8.53731C27.2901 9.734 27.2901 10.9184 27.2901 12.1891Z" fill="black"/>
	<path d="M36.5059 16.7538C37.0981 16.6921 37.5176 16.5441 37.8753 16.6428C38.3565 16.7785 38.2825 17.2843 38.2825 17.6914C38.2825 17.9135 38.2455 18.1479 38.2948 18.37C38.3565 18.6291 38.4922 18.8635 38.6279 19.1842C38.3565 19.2459 38.0974 19.1966 38.0851 18.7154C38.0727 18.3083 38.0851 17.9012 38.0727 17.4817C38.0604 17.0993 37.974 16.7415 37.5176 16.7415C37.0611 16.7415 36.7157 16.9882 36.691 17.4817C36.654 18.0245 36.6787 18.5674 36.6787 19.1102C36.6046 19.1102 36.5429 19.1102 36.4689 19.1102C36.4689 18.6291 36.4689 18.1356 36.4689 17.6544C36.4689 17.2226 36.4566 16.7908 35.9014 16.7292C35.4573 16.6798 35.1118 17.1116 35.0995 17.6791C35.0872 18.1356 35.0872 18.5797 35.0748 19.0238C35.0748 19.0485 35.0255 19.0732 34.8774 19.2336C34.8774 18.296 34.8774 17.4817 34.8774 16.7292C35.0131 16.7045 35.2476 16.7168 35.4573 16.6305C35.9384 16.4207 36.3209 16.5194 36.5059 16.7538Z" fill="black"/>
	<path d="M21.8989 19.1102C21.8989 17.8888 21.8989 16.6551 21.8989 15.4337C21.9483 15.4337 22.01 15.4214 22.0593 15.4214C22.084 15.8655 22.121 16.3097 22.1457 16.8031C22.3184 16.7168 22.4541 16.6428 22.6021 16.5811C23.3054 16.2973 23.8358 16.6428 23.8605 17.3953C23.8729 17.7408 23.8235 18.0985 23.8729 18.444C23.8975 18.666 24.0456 18.8634 24.1566 19.0855C23.8605 19.2212 23.7001 19.1718 23.6631 18.7401C23.6261 18.3083 23.6508 17.8765 23.6508 17.4447C23.6385 17.0252 23.4904 16.7044 23.0093 16.7168C22.5405 16.7291 22.1703 16.9265 22.121 17.457C22.084 17.8394 22.121 18.2342 22.1087 18.629C22.1087 18.8017 22.0716 18.9621 22.0593 19.1348C21.9976 19.1472 21.9483 19.1348 21.8989 19.1102Z" fill="black"/>
	<path d="M33.5823 15.4954C33.5823 16.4453 33.5576 17.4076 33.5946 18.3576C33.6069 18.6043 33.7796 18.851 34.0264 19.0608C34.0141 19.0978 33.977 19.1595 33.977 19.1595C33.4465 18.9497 32.9284 19.2088 32.3979 19.1965C31.8057 19.1965 31.4233 18.6783 31.4109 17.9381C31.3986 17.1362 31.781 16.618 32.4843 16.5317C32.7433 16.507 33.0024 16.5317 33.3108 16.5317C33.3478 16.1492 33.3849 15.8161 33.4095 15.483C33.4712 15.483 33.5206 15.4954 33.5823 15.4954ZM33.3725 17.642C33.3232 17.2719 33.5699 16.7044 32.7927 16.7167C32.0771 16.7291 31.6453 17.1485 31.6577 17.8764C31.6577 18.555 32.0155 18.9991 32.5459 18.9868C33.1381 18.9868 33.3602 18.6166 33.3725 17.642Z" fill="black"/>
	<path d="M44.5375 16.5317C44.5746 16.1369 44.5992 15.8161 44.6362 15.483C44.6979 15.483 44.7473 15.483 44.809 15.483C44.809 16.0135 44.809 16.544 44.809 17.0868C44.809 17.5186 44.772 17.9504 44.8213 18.3699C44.846 18.629 45.0187 18.8634 45.1667 19.1965C45.2284 19.0978 45.2037 19.1595 45.1914 19.1595C44.6733 18.9621 44.1798 19.1471 43.674 19.1841C43.0694 19.2335 42.6747 18.703 42.6376 17.9751C42.6006 17.1485 42.9954 16.5934 43.711 16.5193C43.9824 16.507 44.2538 16.5317 44.5375 16.5317ZM44.5992 17.642C44.5622 17.2596 44.7966 16.7044 44.0194 16.7167C43.3038 16.7291 42.8844 17.1485 42.8844 17.8764C42.8967 18.555 43.2545 18.9991 43.785 18.9868C44.3648 18.9868 44.5869 18.6166 44.5992 17.642Z" fill="black"/>
	<path d="M27.3643 19.0978C26.9201 19.1224 26.3526 19.2088 25.7975 19.1841C25.2546 19.1595 24.9215 18.666 24.8845 17.9874C24.8475 17.2102 25.193 16.6797 25.8345 16.544C26.0072 16.507 26.2046 16.5317 26.3896 16.5193C26.8585 16.507 27.1175 16.6674 27.0559 17.1979C27.0188 17.5803 27.0065 17.9751 27.0559 18.3575C27.0929 18.629 27.2532 18.8634 27.3643 19.0978ZM26.8214 17.8764C26.8091 17.2472 26.9695 16.7044 26.1923 16.7291C25.5261 16.7537 25.1066 17.1609 25.1066 17.8764C25.1066 18.5549 25.452 18.9991 25.9825 18.9991C26.587 18.9991 26.8214 18.629 26.8214 17.8764Z" fill="black"/>
	<path d="M42.0451 19.0854C42.0328 19.0978 42.0205 19.1348 42.0205 19.1348C41.416 18.9004 40.8114 19.3075 40.2193 19.1841C39.7258 19.0854 39.4297 18.5549 39.4297 17.8764C39.442 17.1608 39.7751 16.6797 40.392 16.5687C40.6511 16.5193 40.9348 16.507 41.1815 16.581C41.3543 16.6427 41.5517 16.8648 41.5763 17.0375C41.638 17.4569 41.564 17.9011 41.6133 18.3205C41.6504 18.5919 41.7984 18.851 41.8971 19.1101C41.9464 19.0978 41.9958 19.0978 42.0451 19.0854ZM41.3913 17.5433C41.4283 17.1608 41.4653 16.692 40.7251 16.729C40.0836 16.7661 39.6888 17.1608 39.6764 17.8517C39.6641 18.5302 40.0095 18.9867 40.5277 18.9991C41.1322 19.0114 41.3789 18.6289 41.3913 17.5433Z" fill="black"/>
	<path d="M46.3261 18.1231C46.3631 18.9621 46.6345 19.0854 47.9546 18.888C47.6709 19.1965 47.2514 19.2952 46.7826 19.1841C46.1657 19.0361 45.845 18.3452 46.0054 17.5186C46.1287 16.8648 46.6839 16.433 47.2761 16.544C47.6955 16.618 48.0163 16.8278 48.0286 17.2966C48.041 17.7777 47.7202 17.9874 47.3007 18.0615C46.98 18.1108 46.6469 18.0985 46.3261 18.1231ZM46.2644 17.8394C46.6222 17.8394 47.0047 17.9011 47.3378 17.8147C47.5228 17.7654 47.7696 17.4446 47.7572 17.2719C47.7449 17.0868 47.4735 16.8278 47.2761 16.7661C46.7209 16.6057 46.3014 17.0622 46.2644 17.8394Z" fill="black"/>
	<path d="M30.6831 19.1965C30.387 19.3075 30.1526 19.1348 30.1156 18.703C30.0786 18.3206 30.091 17.9258 30.1033 17.531C30.1156 17.1239 30.0293 16.7908 29.5481 16.7414C29.104 16.7044 28.6228 17.0745 28.6105 17.5187C28.5858 18.0492 28.5982 18.592 28.5982 19.1225C28.5242 19.1225 28.4378 19.1225 28.3638 19.1225C28.3638 18.3082 28.3638 17.5063 28.3638 16.7044C28.4008 16.7414 28.5242 16.8278 28.6475 16.9141C28.7956 16.8154 28.9436 16.6921 29.104 16.6181C29.7332 16.322 30.3254 16.6674 30.3747 17.3583C30.3994 17.679 30.35 18.0245 30.387 18.3452C30.4241 18.6167 30.5598 18.8757 30.6831 19.1965Z" fill="black"/>
	</svg>
