<svg width="96" height="96" viewBox="0 0 96 96" fill="none" xmlns="http://www.w3.org/2000/svg">
    <rect x="28.8982" y="58.9508" width="8.96814" height="19.431" rx="2" transform="rotate(51.266 28.8982 58.9508)" stroke="#16011D" stroke-width="3"/>
    <g clip-path="url(#clip0)">
    <path d="M39.546 69.4532L34.842 66.9994L30.7677 70.3977C30.7024 70.4521 30.6516 70.5218 30.6198 70.6005C30.588 70.6793 30.5761 70.7647 30.5851 70.8492L31.6044 80.3229C31.6116 80.3903 31.6321 80.4556 31.6646 80.515C31.697 80.5745 31.7409 80.627 31.7937 80.6695C31.8465 80.712 31.9071 80.7437 31.9721 80.7628C32.0371 80.7819 32.1053 80.788 32.1726 80.7808L40.3818 79.8976C40.4491 79.8903 40.5144 79.8699 40.5739 79.8374C40.6334 79.8049 40.6859 79.761 40.7284 79.7083C40.7709 79.6555 40.8026 79.5949 40.8217 79.5298C40.8408 79.4648 40.8469 79.3967 40.8396 79.3293L39.8204 69.8556C39.8113 69.7711 39.7815 69.6902 39.7336 69.62C39.6858 69.5498 39.6213 69.4925 39.546 69.4532V69.4532Z" stroke="#16011D" stroke-width="2" stroke-linecap="round" stroke-linejoin="round"/>
    <path d="M34.7662 71.4105C35.0991 71.6787 35.5864 71.6263 35.8546 71.2934C36.1228 70.9605 36.0704 70.4732 35.7375 70.205C35.4046 69.9368 34.9173 69.9892 34.6491 70.3221C34.3809 70.655 34.4333 71.1423 34.7662 71.4105Z" fill="#16011D"/>
    </g>
    <path d="M35.9752 65.1594L68.5482 47.6627C69.6498 47.071 69.9443 45.6249 69.1619 44.6494L64.0587 38.2873C63.8114 37.979 63.4058 37.8453 63.0237 37.9461L58.7105 39.0834C57.8726 39.3043 57.1695 38.4277 57.5669 37.6577L59.613 33.6941C59.7943 33.3429 59.7518 32.9179 59.5045 32.6096L58.0883 30.844C57.3241 29.8914 55.892 29.8401 55.0616 30.7356L30.0714 57.6856C29.3974 58.4126 29.3575 59.5236 29.9778 60.2969L33.4686 64.6489C34.0719 65.4009 35.1258 65.6156 35.9752 65.1594Z" stroke="#16011D" stroke-width="3"/>
    <path d="M27.9629 57.7849L35.4448 67.1125" stroke="#16011D" stroke-width="2" stroke-linecap="round"/>
    <path d="M26.797 58.7202L34.2789 68.0478" stroke="#16011D" stroke-width="2" stroke-linecap="round"/>
    <path d="M35.8167 49.3087L41.1553 64.2569" stroke="#16011D" stroke-linecap="round"/>
    <path d="M42.223 41.8346L47.5617 61.0537" stroke="#16011D" stroke-linecap="round"/>
    <path d="M42.223 41.8346L64.2977 50.676" stroke="#16011D" stroke-linecap="round"/>
    <path d="M35.8167 49.3087L47.5617 61.0537" stroke="#16011D" stroke-linecap="round"/>
    <path d="M78.5259 8.7688C78.2498 8.7688 78.0259 8.99266 78.0259 9.2688C78.0259 9.54494 78.2498 9.7688 78.5259 9.7688V8.7688ZM66.2809 34.8943C66.2809 35.1704 66.5047 35.3943 66.7809 35.3943C67.057 35.3943 67.2809 35.1704 67.2809 34.8943H66.2809ZM70.5179 30.5895H73.1873V29.5895H70.5179V30.5895ZM73.1873 25.3186H72.3865V26.3186H73.1873V25.3186ZM69.9502 22.8823V19.6752H68.9502V22.8823H69.9502ZM73.4502 16.1752H82.7968V15.1752H73.4502V16.1752ZM82.7968 8.7688H78.5259V9.7688H82.7968V8.7688ZM66.2809 33.8266V34.8943H67.2809V33.8266H66.2809ZM86.5 12.472C86.5 10.4268 84.842 8.7688 82.7968 8.7688V9.7688C84.2898 9.7688 85.5 10.9791 85.5 12.472H86.5ZM82.7968 16.1752C84.842 16.1752 86.5 14.5172 86.5 12.472H85.5C85.5 13.9649 84.2898 15.1752 82.7968 15.1752V16.1752ZM69.9502 19.6752C69.9502 17.7422 71.5172 16.1752 73.4502 16.1752V15.1752C70.9649 15.1752 68.9502 17.1899 68.9502 19.6752H69.9502ZM72.3865 25.3186C71.041 25.3186 69.9502 24.2279 69.9502 22.8823H68.9502C68.9502 24.7801 70.4887 26.3186 72.3865 26.3186V25.3186ZM75.8227 27.9541C75.8227 26.4985 74.6428 25.3186 73.1873 25.3186V26.3186C74.0905 26.3186 74.8227 27.0508 74.8227 27.9541H75.8227ZM73.1873 30.5895C74.6428 30.5895 75.8227 29.4096 75.8227 27.9541H74.8227C74.8227 28.8573 74.0905 29.5895 73.1873 29.5895V30.5895ZM67.2809 33.8266C67.2809 32.0388 68.7302 30.5895 70.5179 30.5895V29.5895C68.1779 29.5895 66.2809 31.4865 66.2809 33.8266H67.2809Z" fill="#16011D"/>
    <path d="M64.6454 30.6234V29.5557V27.1493C64.6454 24.9402 62.8545 23.1493 60.6454 23.1493H52.6294C50.4203 23.1493 48.6294 21.3585 48.6294 19.1493V15.9382C48.6294 13.729 50.4203 11.9382 52.6294 11.9382H55.0358C56.8049 11.9382 58.239 10.504 58.239 8.73497V8.73497V7.66724" stroke="#16011D" stroke-linecap="round"/>
    <circle cx="58.239" cy="17.2768" r="1.63546" stroke="#16011D"/>
    <circle cx="68.9163" cy="5.5318" r="2.70319" stroke="#16011D"/>
    <defs>
    <clipPath id="clip0">
    <rect width="16.513" height="16.513" fill="white" transform="translate(34.4321 63.1891) rotate(38.8594)"/>
    </clipPath>
    </defs>
    </svg>
