<svg width="96" height="96" viewBox="0 0 96 96" fill="none" xmlns="http://www.w3.org/2000/svg">
    <path d="M64.4255 34.5873L47.9574 18.1191L31.4893 34.5873V60.9362L47.9574 77.4044L64.4255 60.9362V34.5873Z" stroke="#16011D" stroke-width="3"/>
    <path d="M54.9563 36.234L47.9574 19.7659L40.5467 36.234M54.9563 36.234H40.5467M54.9563 36.234L64.0138 34.1755M40.5467 36.234L31.4893 34.5872" stroke="#16011D" stroke-width="3"/>
    <path d="M54.9563 59.2895L47.9574 75.7576L40.5467 59.2895M54.9563 59.2895H40.5467M54.9563 59.2895L64.0138 61.348M54.9563 59.2895V36.2341M40.5467 59.2895L31.4893 60.9363M40.5467 59.2895V36.2341" stroke="#16011D" stroke-width="3"/>
    <path d="M61.0645 17.5702C62.4902 16.8044 63.6598 15.6349 64.4255 14.2092C65.1913 15.6349 66.3608 16.8044 67.7866 17.5702C66.3608 18.3359 65.1913 19.5055 64.4255 20.9312C63.6598 19.5055 62.4902 18.3359 61.0645 17.5702Z" stroke="#16011D"/>
    <path d="M27.1255 23.0596C27.7799 22.6484 28.3335 22.0948 28.7447 21.4405C29.1559 22.0948 29.7095 22.6484 30.3638 23.0596C29.7095 23.4708 29.1559 24.0244 28.7447 24.6788C28.3335 24.0244 27.7799 23.4708 27.1255 23.0596Z" stroke="#16011D"/>
    <path d="M59.0577 23.8531C59.1577 23.3289 59.1577 22.7903 59.0577 22.2661C59.5819 22.366 60.1205 22.3661 60.6447 22.2661C60.5447 22.7903 60.5447 23.3289 60.6447 23.8531C60.1205 23.7531 59.5819 23.7531 59.0577 23.8531Z" stroke="#16011D"/>
    <path d="M67.5417 22.5238C67.5417 22.5212 67.5417 22.5186 67.5417 22.516C67.5443 22.516 67.5469 22.516 67.5495 22.516C67.5495 22.5186 67.5495 22.5212 67.5495 22.5238C67.5469 22.5238 67.5443 22.5238 67.5417 22.5238Z" stroke="#16011D"/>
    </svg>
