<svg width="96" height="96" viewBox="0 0 96 96" fill="none" xmlns="http://www.w3.org/2000/svg">
    <rect x="32" y="31" width="25" height="43" rx="3.72881" stroke="#16011D" stroke-width="3"/>
    <rect width="1" height="1" transform="matrix(-1 0 0 1 48 64)" stroke="#16011D"/>
    <rect width="1" height="0" transform="matrix(-1 0 0 1 41 61)" stroke="#16011D"/>
    <rect width="1" height="0" transform="matrix(-1 0 0 1 49 56)" stroke="#16011D"/>
    <rect width="1" height="1" transform="matrix(-1 0 0 1 39 69)" stroke="#16011D"/>
    <rect width="1" height="1" transform="matrix(-1 0 0 1 54 68)" stroke="#16011D"/>
    <rect x="32" y="21" width="25" height="10" rx="3.72881" stroke="#16011D" stroke-width="3"/>
    <path d="M47 31H61.2712C63.3306 31 65 32.6694 65 34.7288V46.1538C65 47.1734 64.1734 48 63.1538 48V48C62.1342 48 61.3077 47.1734 61.3077 46.1538V36.0709C61.3077 34.0116 59.6382 32.3421 57.5789 32.3421H56.2308" stroke="#16011D" stroke-width="3"/>
    <path d="M32 61H33.9951C35.8519 61 37.3571 59.4948 37.3571 57.6379V57.6379C37.3571 55.7811 38.8624 54.2759 40.7192 54.2759H41.3621C43.0951 54.2759 44.5 52.8645 44.5 51.1315V51.1315C44.5 49.4056 45.8991 48 47.625 48H48.2845C49.6462 48 50.75 49.1038 50.75 50.4655V50.4655C50.75 51.8272 51.8538 52.931 53.2155 52.931H57" stroke="#16011D" stroke-width="2"/>
    </svg>
