<svg width="96" height="96" viewBox="0 0 96 96" fill="none" xmlns="http://www.w3.org/2000/svg">
    <path d="M39.923 1.5C40.1992 1.5 40.423 1.72386 40.423 2C40.423 2.27614 40.1992 2.5 39.923 2.5V1.5ZM45.0769 24C45.0769 24.2761 44.853 24.5 44.5769 24.5C44.3007 24.5 44.0769 24.2761 44.0769 24H45.0769ZM42.0384 21.1154H40.5576V20.1154H42.0384V21.1154ZM40.5576 15.4615H43.7307V16.4615H40.5576V15.4615ZM43.7307 10.5385H38.0192V9.53846H43.7307V10.5385ZM38.0192 1.5H39.923V2.5H38.0192V1.5ZM45.0769 23.1538V24H44.0769V23.1538H45.0769ZM33.5 6.01923C33.5 3.52333 35.5233 1.5 38.0192 1.5V2.5C36.0756 2.5 34.5 4.07561 34.5 6.01923H33.5ZM38.0192 10.5385C35.5233 10.5385 33.5 8.51513 33.5 6.01923H34.5C34.5 7.96285 36.0756 9.53846 38.0192 9.53846V10.5385ZM46.1923 13C46.1923 11.6405 45.0902 10.5385 43.7307 10.5385V9.53846C45.6425 9.53846 47.1923 11.0882 47.1923 13L46.1923 13ZM43.7307 15.4615C45.0902 15.4615 46.1923 14.3595 46.1923 13L47.1923 13C47.1923 14.9118 45.6425 16.4615 43.7307 16.4615V15.4615ZM37.7307 18.2885C37.7307 16.7272 38.9964 15.4615 40.5576 15.4615V16.4615C39.5487 16.4615 38.7307 17.2795 38.7307 18.2885H37.7307ZM40.5576 21.1154C38.9964 21.1154 37.7307 19.8497 37.7307 18.2885H38.7307C38.7307 19.2974 39.5487 20.1154 40.5576 20.1154V21.1154ZM44.0769 23.1538C44.0769 22.028 43.1642 21.1154 42.0384 21.1154V20.1154C43.7165 20.1154 45.0769 21.4758 45.0769 23.1538H44.0769Z" fill="#16011D"/>
    <path d="M50.0768 23.5769V22.7307V21.4615C50.0768 19.1249 51.971 17.2307 54.3076 17.2307H57.6922C60.4961 17.2307 62.7691 14.9577 62.7691 12.1538V11.5897C62.7691 9.09732 60.7486 7.07686 58.2563 7.07686V7.07686C57.0101 7.07686 55.9999 6.06663 55.9999 4.82045V4.11532V3.26917" stroke="#16011D" stroke-linecap="round"/>
    <path d="M59.7307 12.1538C59.7307 13.2796 58.8181 14.1923 57.6923 14.1923C56.5665 14.1923 55.6538 13.2796 55.6538 12.1538C55.6538 11.028 56.5665 10.1154 57.6923 10.1154C58.8181 10.1154 59.7307 11.028 59.7307 12.1538Z" stroke="#16011D"/>
    <path d="M39.4229 6.23088C39.4229 6.88938 38.8891 7.42319 38.2306 7.42319C37.5721 7.42319 37.0383 6.88938 37.0383 6.23088C37.0383 5.57239 37.5721 5.03857 38.2306 5.03857C38.8891 5.03857 39.4229 5.57239 39.4229 6.23088Z" stroke="#16011D"/>
    <path d="M47.0384 18.9231C47.0384 19.5816 46.5046 20.1155 45.8461 20.1155C45.1876 20.1155 44.6538 19.5816 44.6538 18.9231C44.6538 18.2646 45.1876 17.7308 45.8461 17.7308C46.5046 17.7308 47.0384 18.2646 47.0384 18.9231Z" stroke="#16011D"/>
    <path d="M38.9067 29.1778C38.9067 27.975 39.8817 27 41.0844 27H46.5289H50.34H51.9733C53.1761 27 54.1511 27.975 54.1511 29.1778V31.3556V35.7111V73.8223C54.1511 75.025 53.1761 76 51.9733 76H38.9067C37.7039 76 36.7289 75.025 36.7289 73.8223V36.2252C36.7289 35.8871 36.8076 35.5537 36.9588 35.2513L38.6767 31.8154C38.8279 31.513 38.9067 31.1795 38.9067 30.8415V29.1778Z" stroke="#16011D" stroke-width="3"/>
    <path d="M53.0622 28.0889V30.2666H44.7785C42.4395 30.2666 40.223 31.3126 38.7361 33.1182C37.7811 34.2778 37.18 35.6877 37.0045 37.1797L36.7289 39.5222V36.2555L39.9956 28.0889H53.0622Z" fill="#16011D"/>
    <path d="M53.0622 30.2666V31.7666H54.5622V30.2666H53.0622ZM53.0622 28.0889H54.5622V26.5889H53.0622V28.0889ZM39.9956 28.0889V26.5889H38.98L38.6028 27.5318L39.9956 28.0889ZM36.7289 36.2555L35.3362 35.6985L35.2289 35.9667V36.2555H36.7289ZM36.7289 39.5222H35.2289L38.2186 39.6975L36.7289 39.5222ZM37.0045 37.1797L35.5147 37.0044L37.0045 37.1797ZM38.7361 33.1182L37.5782 32.1646L37.5782 32.1646L38.7361 33.1182ZM54.5622 30.2666V28.0889H51.5622V30.2666H54.5622ZM53.0622 26.5889H39.9956V29.5889H53.0622V26.5889ZM44.7785 31.7666H53.0622V28.7666H44.7785V31.7666ZM38.6028 27.5318L35.3362 35.6985L38.1216 36.8126L41.3883 28.646L38.6028 27.5318ZM35.2289 36.2555V39.5222H38.2289V36.2555H35.2289ZM38.2186 39.6975L38.4942 37.355L35.5147 37.0044L35.2392 39.347L38.2186 39.6975ZM38.4942 37.355C38.6361 36.1489 39.122 35.0092 39.894 34.0718L37.5782 32.1646C36.4402 33.5465 35.7239 35.2266 35.5147 37.0044L38.4942 37.355ZM44.7785 28.7666C41.9913 28.7666 39.3501 30.0131 37.5782 32.1646L39.894 34.0718C41.096 32.6122 42.8877 31.7666 44.7785 31.7666V28.7666Z" fill="#16011D"/>
    <path d="M42.1733 36.7999V46.5999" stroke="#16011D" stroke-width="2" stroke-linecap="round"/>
    <path d="M48.7067 41.1555V58.5778" stroke="#16011D" stroke-width="2" stroke-linecap="round"/>
    <path d="M42.1733 52.0444V55.3111" stroke="#16011D" stroke-width="2" stroke-linecap="round"/>
    <path d="M48.7067 66.2V71.6444" stroke="#16011D" stroke-width="2" stroke-linecap="round"/>
    <path d="M42.1733 61.8445V69.4667" stroke="#16011D" stroke-width="2" stroke-linecap="round"/>
    </svg>
