<svg width="24" height="24" viewBox="0 0 24 24" fill="none" xmlns="http://www.w3.org/2000/svg">
    <path fill-rule="evenodd" clip-rule="evenodd" d="M11.6137 3.63955C11.8648 3.55798 12.1352 3.55798 12.3863 3.63955C12.4829 3.67096 12.6096 3.73841 12.8292 3.92485C13.0556 4.11698 13.3276 4.38825 13.7324 4.79301L18.25 9.3106V16.1999C18.25 17.0524 18.2494 17.6466 18.2116 18.1093C18.1745 18.5631 18.1054 18.8239 18.0048 19.0214C17.789 19.4448 17.4448 19.789 17.0215 20.0047C16.824 20.1053 16.5632 20.1745 16.1093 20.2116C15.6467 20.2494 15.0525 20.2499 14.2 20.2499H9.8C8.94755 20.2499 8.35331 20.2494 7.89068 20.2116C7.4368 20.1745 7.17604 20.1053 6.97852 20.0047C6.55516 19.789 6.21095 19.4448 5.99524 19.0214C5.8946 18.8239 5.82546 18.5631 5.78838 18.1093C5.75058 17.6466 5.75 17.0524 5.75 16.1999V9.3106L10.2676 4.79301C10.6724 4.38824 10.9445 4.11698 11.1708 3.92485C11.3904 3.73841 11.5171 3.67096 11.6137 3.63955ZM4.46914 8.47014L1.46967 11.4696C1.17678 11.7625 1.17678 12.2374 1.46967 12.5303C1.76256 12.8232 2.23744 12.8232 2.53033 12.5303L4.25 10.8106V16.1999L4.25 16.232C4.24999 17.0449 4.24999 17.7005 4.29336 18.2314C4.33803 18.778 4.43238 19.2582 4.65873 19.7024C5.01825 20.408 5.59193 20.9817 6.29754 21.3412C6.74175 21.5676 7.2219 21.6619 7.76853 21.7066C8.29944 21.75 8.95505 21.75 9.76788 21.7499H9.8H14.2H14.2321C15.045 21.75 15.7006 21.75 16.2315 21.7066C16.7781 21.6619 17.2582 21.5676 17.7025 21.3412C18.4081 20.9817 18.9818 20.408 19.3413 19.7024C19.5676 19.2582 19.662 18.778 19.7066 18.2314C19.75 17.7005 19.75 17.0449 19.75 16.2321V16.1999V10.8106L21.4697 12.5303C21.7626 12.8232 22.2374 12.8232 22.5303 12.5303C22.8232 12.2374 22.8232 11.7625 22.5303 11.4696L14.7931 3.73235L14.7715 3.71083C14.3939 3.33312 14.0786 3.01785 13.8 2.78134C13.5094 2.53467 13.2098 2.32993 12.8498 2.21296C12.2975 2.0335 11.7025 2.0335 11.1502 2.21296C10.7902 2.32993 10.4906 2.53467 10.2 2.78134C9.9214 3.01785 9.60615 3.33312 9.22846 3.71082L9.22845 3.71083L9.20693 3.73235L4.4702 8.46908C4.46985 8.46944 4.46949 8.46979 4.46914 8.47014Z" fill="#16011D" />
</svg>
