<svg width="24" height="24" viewBox="0 0 24 24" fill="none" xmlns="http://www.w3.org/2000/svg">
    <g clip-path="url(#clip0)">
    <path d="M17.0529 16.445C17.1285 16.1794 17.405 16.0254 17.6706 16.1009C17.9362 16.1765 18.0903 16.4531 18.0147 16.7187C17.7717 17.5727 17.0929 18.2421 16.2157 18.4614L8.08823 20.4932C6.71434 20.8107 5.36666 19.9801 5.05461 18.6279L2.95419 9.5261C2.64771 8.19801 3.46153 6.86917 4.78383 6.5386L6.67286 6.06634C6.94075 5.99937 7.21222 6.16225 7.2792 6.43014C7.34617 6.69804 7.18329 6.96951 6.91539 7.03648L5.02637 7.50874C4.23299 7.70708 3.74469 8.50439 3.92858 9.30124L6.029 18.403C6.21621 19.2143 7.02475 19.7126 7.85439 19.521L15.9732 17.4913C16.4998 17.3596 16.9069 16.9582 17.0529 16.445ZM19.4998 13.2929V5.5C19.4998 4.67157 18.8282 4 17.9998 4H8.99977C8.17134 4 7.49977 4.67157 7.49977 5.5V11.2929L9.64622 9.14645C9.84148 8.95118 10.1581 8.95118 10.3533 9.14645L14.0635 12.8566L16.7224 11.084C16.9207 10.9518 17.1848 10.9779 17.3533 11.1464L19.4998 13.2929ZM19.4873 14.6946L16.9361 12.1434L14.2771 13.916C14.0788 14.0482 13.8148 14.0221 13.6462 13.8536L9.99977 10.2071L7.49977 12.7071V14.5C7.49977 15.3284 8.17134 16 8.99977 16H17.9998C18.7623 16 19.3919 15.4311 19.4873 14.6946ZM8.99977 3H17.9998C19.3805 3 20.4998 4.11929 20.4998 5.5V14.5C20.4998 15.8807 19.3805 17 17.9998 17H8.99977C7.61906 17 6.49977 15.8807 6.49977 14.5V5.5C6.49977 4.11929 7.61906 3 8.99977 3ZM15.4998 5H17.4998C18.0521 5 18.4998 5.44772 18.4998 6V8C18.4998 8.55228 18.0521 9 17.4998 9H15.4998C14.9475 9 14.4998 8.55228 14.4998 8V6C14.4998 5.44772 14.9475 5 15.4998 5ZM15.4998 6V8H17.4998V6H15.4998Z" fill="#747075" stroke="#747075" stroke-width="0.1"/>
    </g>
    <defs>
    <clipPath id="clip0">
    <rect width="24" height="24" fill="white"/>
    </clipPath>
    </defs>
    </svg>
