<svg width="24" height="24" viewBox="0 0 24 24" fill="none" xmlns="http://www.w3.org/2000/svg">
    <path fill-rule="evenodd" clip-rule="evenodd" d="M8.55024 7.99995C8.55024 6.09457 10.0949 4.54995 12.0002 4.54995C13.9056 4.54995 15.4502 6.09457 15.4502 7.99995C15.4502 9.90533 13.9056 11.45 12.0002 11.45C10.0949 11.45 8.55024 9.90533 8.55024 7.99995ZM12.0002 3.44995C9.48735 3.44995 7.45024 5.48706 7.45024 7.99995C7.45024 10.5128 9.48735 12.55 12.0002 12.55C14.5131 12.55 16.5502 10.5128 16.5502 7.99995C16.5502 5.48706 14.5131 3.44995 12.0002 3.44995ZM5.5502 18.9999C5.5502 17.0945 7.09481 15.5499 9.0002 15.5499H15.0002C16.9056 15.5499 18.4502 17.0945 18.4502 18.9999C18.4502 19.8007 17.801 20.4499 17.0002 20.4499H7.0002C6.19938 20.4499 5.5502 19.8007 5.5502 18.9999ZM9.0002 14.4499C6.4873 14.4499 4.4502 16.487 4.4502 18.9999C4.4502 20.4082 5.59187 21.5499 7.0002 21.5499H17.0002C18.4085 21.5499 19.5502 20.4082 19.5502 18.9999C19.5502 16.487 17.5131 14.4499 15.0002 14.4499H9.0002Z" fill="#747075"/>
    </svg>
