<svg width="24" height="24" viewBox="0 0 24 24" fill="none" xmlns="http://www.w3.org/2000/svg">
    <path fill-rule="evenodd" clip-rule="evenodd" d="M7.48614 21.4999H15.834C18.9003 21.4999 21.2527 20.3924 20.5845 15.9347L19.8065 9.89351C19.3946 7.66925 17.9758 6.81799 16.731 6.81799H6.5525C5.28934 6.81799 3.95295 7.73332 3.47698 9.89351L2.69895 15.9347C2.13144 19.8889 4.41977 21.4999 7.48614 21.4999Z" stroke="#16011D" stroke-width="1.5" stroke-linecap="round" stroke-linejoin="round"/>
    <path d="M7.34877 6.59836C7.34877 4.21229 9.28307 2.27799 11.6691 2.27799V2.27799C12.8181 2.27312 13.9218 2.72615 14.7359 3.53691C15.5501 4.34766 16.0078 5.44935 16.0078 6.59836V6.59836" stroke="#16011D" stroke-width="1.5" stroke-linecap="round" stroke-linejoin="round"/>
    <path d="M8.70353 11.1018H8.7493" stroke="#16011D" stroke-width="1.5" stroke-linecap="round" stroke-linejoin="round"/>
    <path d="M14.5341 11.1018H14.5799" stroke="#16011D" stroke-width="1.5" stroke-linecap="round" stroke-linejoin="round"/>
    </svg>
